STARTFONT 2.1
COMMENT Exported by Fony v1.4.7
FONT CEfont
SIZE 8 9 8
FONTBOUNDINGBOX 9 7 0 1
STARTPROPERTIES 6
COPYRIGHT "Created with Fony 1.4.7"
RESOLUTION_X 9
RESOLUTION_Y 8
FONT_ASCENT 9
FONT_DESCENT -1
DEFAULT_CHAR 0
ENDPROPERTIES
CHARS 128
STARTCHAR 000
ENCODING 0
SWIDTH 648 0
DWIDTH 9 0
BBX 9 8 0 1
BITMAP
0000
0000
0000
0000
0000
0000
0000
0000
ENDCHAR
STARTCHAR 001
ENCODING 1
SWIDTH 648 0
DWIDTH 9 0
BBX 9 8 0 1
BITMAP
7E00
8100
A500
8100
BD00
BD00
8100
7E00
ENDCHAR
STARTCHAR 002
ENCODING 2
SWIDTH 648 0
DWIDTH 9 0
BBX 9 8 0 1
BITMAP
7E00
FF00
DB00
FF00
C300
C300
FF00
7E00
ENDCHAR
STARTCHAR 003
ENCODING 3
SWIDTH 648 0
DWIDTH 9 0
BBX 9 8 0 1
BITMAP
6C00
FE00
FE00
FE00
7C00
3800
1000
0000
ENDCHAR
STARTCHAR 004
ENCODING 4
SWIDTH 648 0
DWIDTH 9 0
BBX 9 8 0 1
BITMAP
1000
3800
7C00
FE00
7C00
3800
1000
0000
ENDCHAR
STARTCHAR 005
ENCODING 5
SWIDTH 648 0
DWIDTH 9 0
BBX 9 8 0 1
BITMAP
3800
7C00
3800
FE00
FE00
1000
1000
7C00
ENDCHAR
STARTCHAR 006
ENCODING 6
SWIDTH 648 0
DWIDTH 9 0
BBX 9 8 0 1
BITMAP
0000
1800
3C00
7E00
FF00
7E00
1800
7E00
ENDCHAR
STARTCHAR 007
ENCODING 7
SWIDTH 648 0
DWIDTH 9 0
BBX 9 8 0 1
BITMAP
0000
0000
1800
3C00
3C00
1800
0000
0000
ENDCHAR
STARTCHAR 008
ENCODING 8
SWIDTH 648 0
DWIDTH 9 0
BBX 9 8 0 1
BITMAP
FF00
FF00
E700
C300
C300
E700
FF00
FF00
ENDCHAR
STARTCHAR 009
ENCODING 9
SWIDTH 648 0
DWIDTH 9 0
BBX 9 8 0 1
BITMAP
0000
3C00
6600
4200
4200
6600
3C00
0000
ENDCHAR
STARTCHAR 010
ENCODING 10
SWIDTH 648 0
DWIDTH 9 0
BBX 9 8 0 1
BITMAP
FF00
C300
9900
BD00
BD00
9900
C300
FF00
ENDCHAR
STARTCHAR 011
ENCODING 11
SWIDTH 648 0
DWIDTH 9 0
BBX 9 8 0 1
BITMAP
0F00
0700
0F00
7D00
CC00
CC00
CC00
7800
ENDCHAR
STARTCHAR 012
ENCODING 12
SWIDTH 648 0
DWIDTH 9 0
BBX 9 8 0 1
BITMAP
3C00
6600
6600
6600
3C00
1800
7E00
1800
ENDCHAR
STARTCHAR 013
ENCODING 13
SWIDTH 648 0
DWIDTH 9 0
BBX 9 8 0 1
BITMAP
3F00
3300
3F00
3000
3000
7000
F000
E000
ENDCHAR
STARTCHAR 014
ENCODING 14
SWIDTH 648 0
DWIDTH 9 0
BBX 9 8 0 1
BITMAP
7F00
6300
7F00
6300
6300
6700
E600
C000
ENDCHAR
STARTCHAR 015
ENCODING 15
SWIDTH 648 0
DWIDTH 9 0
BBX 9 8 0 1
BITMAP
9900
5A00
3C00
E700
E700
3C00
5A00
9900
ENDCHAR
STARTCHAR 016
ENCODING 16
SWIDTH 648 0
DWIDTH 9 0
BBX 9 8 0 1
BITMAP
8000
E000
F800
FE00
F800
E000
8000
0000
ENDCHAR
STARTCHAR 017
ENCODING 17
SWIDTH 648 0
DWIDTH 9 0
BBX 9 8 0 1
BITMAP
0200
0E00
3E00
FE00
3E00
0E00
0200
0000
ENDCHAR
STARTCHAR 018
ENCODING 18
SWIDTH 648 0
DWIDTH 9 0
BBX 9 8 0 1
BITMAP
1800
3C00
7E00
1800
1800
7E00
3C00
1800
ENDCHAR
STARTCHAR 019
ENCODING 19
SWIDTH 648 0
DWIDTH 9 0
BBX 9 8 0 1
BITMAP
6600
6600
6600
6600
6600
0000
6600
0000
ENDCHAR
STARTCHAR 020
ENCODING 20
SWIDTH 648 0
DWIDTH 9 0
BBX 9 8 0 1
BITMAP
7F00
DB00
DB00
7B00
1B00
1B00
1B00
0000
ENDCHAR
STARTCHAR 021
ENCODING 21
SWIDTH 648 0
DWIDTH 9 0
BBX 9 8 0 1
BITMAP
3F00
6000
7C00
6600
6600
3E00
0600
FC00
ENDCHAR
STARTCHAR 022
ENCODING 22
SWIDTH 648 0
DWIDTH 9 0
BBX 9 8 0 1
BITMAP
0000
0000
0000
0000
7E00
7E00
7E00
0000
ENDCHAR
STARTCHAR 023
ENCODING 23
SWIDTH 648 0
DWIDTH 9 0
BBX 9 8 0 1
BITMAP
1800
3C00
7E00
1800
7E00
3C00
1800
FF00
ENDCHAR
STARTCHAR 024
ENCODING 24
SWIDTH 648 0
DWIDTH 9 0
BBX 9 8 0 1
BITMAP
1800
3C00
7E00
1800
1800
1800
1800
0000
ENDCHAR
STARTCHAR 025
ENCODING 25
SWIDTH 648 0
DWIDTH 9 0
BBX 9 8 0 1
BITMAP
1800
1800
1800
1800
7E00
3C00
1800
0000
ENDCHAR
STARTCHAR 026
ENCODING 26
SWIDTH 648 0
DWIDTH 9 0
BBX 9 8 0 1
BITMAP
0000
1800
0C00
FE00
0C00
1800
0000
0000
ENDCHAR
STARTCHAR 027
ENCODING 27
SWIDTH 648 0
DWIDTH 9 0
BBX 9 8 0 1
BITMAP
0000
3000
6000
FE00
6000
3000
0000
0000
ENDCHAR
STARTCHAR 028
ENCODING 28
SWIDTH 648 0
DWIDTH 9 0
BBX 9 8 0 1
BITMAP
0000
0000
C000
C000
C000
FE00
0000
0000
ENDCHAR
STARTCHAR 029
ENCODING 29
SWIDTH 648 0
DWIDTH 9 0
BBX 9 8 0 1
BITMAP
0000
2400
6600
FF00
6600
2400
0000
0000
ENDCHAR
STARTCHAR 030
ENCODING 30
SWIDTH 648 0
DWIDTH 9 0
BBX 9 8 0 1
BITMAP
0000
1800
3C00
7E00
FF00
FF00
0000
0000
ENDCHAR
STARTCHAR 031
ENCODING 31
SWIDTH 648 0
DWIDTH 9 0
BBX 9 8 0 1
BITMAP
0000
FF00
FF00
7E00
3C00
1800
0000
0000
ENDCHAR
STARTCHAR 032
ENCODING 32
SWIDTH 648 0
DWIDTH 9 0
BBX 9 8 0 1
BITMAP
0000
0000
0000
0000
0000
0000
0000
0000
ENDCHAR
STARTCHAR 033
ENCODING 33
SWIDTH 648 0
DWIDTH 9 0
BBX 9 8 0 1
BITMAP
C000
C000
C000
C000
C000
0000
C000
0000
ENDCHAR
STARTCHAR 034
ENCODING 34
SWIDTH 648 0
DWIDTH 9 0
BBX 9 8 0 1
BITMAP
D800
D800
D800
0000
0000
0000
0000
0000
ENDCHAR
STARTCHAR 035
ENCODING 35
SWIDTH 648 0
DWIDTH 9 0
BBX 9 8 0 1
BITMAP
6C00
6C00
FE00
6C00
FE00
6C00
6C00
0000
ENDCHAR
STARTCHAR 036
ENCODING 36
SWIDTH 648 0
DWIDTH 9 0
BBX 9 8 0 1
BITMAP
1800
7E00
C000
7C00
0600
FC00
1800
0000
ENDCHAR
STARTCHAR 037
ENCODING 37
SWIDTH 648 0
DWIDTH 9 0
BBX 9 8 0 1
BITMAP
0000
C600
CC00
1800
3000
6600
C600
0000
ENDCHAR
STARTCHAR 038
ENCODING 38
SWIDTH 648 0
DWIDTH 9 0
BBX 9 8 0 1
BITMAP
3800
6C00
3800
7600
DC00
CC00
7600
0000
ENDCHAR
STARTCHAR 039
ENCODING 39
SWIDTH 648 0
DWIDTH 9 0
BBX 9 8 0 1
BITMAP
3000
3000
6000
0000
0000
0000
0000
0000
ENDCHAR
STARTCHAR 040
ENCODING 40
SWIDTH 648 0
DWIDTH 9 0
BBX 9 8 0 1
BITMAP
3000
6000
C000
C000
C000
6000
3000
0000
ENDCHAR
STARTCHAR 041
ENCODING 41
SWIDTH 648 0
DWIDTH 9 0
BBX 9 8 0 1
BITMAP
C000
6000
3000
3000
3000
6000
C000
0000
ENDCHAR
STARTCHAR 042
ENCODING 42
SWIDTH 648 0
DWIDTH 9 0
BBX 9 8 0 1
BITMAP
0000
6600
3C00
FF00
3C00
6600
0000
0000
ENDCHAR
STARTCHAR 043
ENCODING 43
SWIDTH 648 0
DWIDTH 9 0
BBX 9 8 0 1
BITMAP
0000
3000
3000
FC00
FC00
3000
3000
0000
ENDCHAR
STARTCHAR 044
ENCODING 44
SWIDTH 648 0
DWIDTH 9 0
BBX 9 8 0 1
BITMAP
0000
0000
0000
0000
0000
6000
6000
C000
ENDCHAR
STARTCHAR 045
ENCODING 45
SWIDTH 648 0
DWIDTH 9 0
BBX 9 8 0 1
BITMAP
0000
0000
0000
FC00
0000
0000
0000
0000
ENDCHAR
STARTCHAR 046
ENCODING 46
SWIDTH 648 0
DWIDTH 9 0
BBX 9 8 0 1
BITMAP
0000
0000
0000
0000
0000
C000
C000
0000
ENDCHAR
STARTCHAR 047
ENCODING 47
SWIDTH 648 0
DWIDTH 9 0
BBX 9 8 0 1
BITMAP
0600
0C00
1800
3000
6000
C000
8000
0000
ENDCHAR
STARTCHAR 048
ENCODING 48
SWIDTH 648 0
DWIDTH 9 0
BBX 9 8 0 1
BITMAP
7C00
CE00
DE00
F600
E600
C600
7C00
0000
ENDCHAR
STARTCHAR 049
ENCODING 49
SWIDTH 648 0
DWIDTH 9 0
BBX 9 8 0 1
BITMAP
3000
7000
3000
3000
3000
3000
FC00
0000
ENDCHAR
STARTCHAR 050
ENCODING 50
SWIDTH 648 0
DWIDTH 9 0
BBX 9 8 0 1
BITMAP
7C00
C600
0600
7C00
C000
C000
FE00
0000
ENDCHAR
STARTCHAR 051
ENCODING 51
SWIDTH 648 0
DWIDTH 9 0
BBX 9 8 0 1
BITMAP
FC00
0600
0600
3C00
0600
0600
FC00
0000
ENDCHAR
STARTCHAR 052
ENCODING 52
SWIDTH 648 0
DWIDTH 9 0
BBX 9 8 0 1
BITMAP
0C00
CC00
CC00
CC00
FE00
0C00
0C00
0000
ENDCHAR
STARTCHAR 053
ENCODING 53
SWIDTH 648 0
DWIDTH 9 0
BBX 9 8 0 1
BITMAP
FE00
C000
FC00
0600
0600
C600
7C00
0000
ENDCHAR
STARTCHAR 054
ENCODING 54
SWIDTH 648 0
DWIDTH 9 0
BBX 9 8 0 1
BITMAP
7C00
C000
C000
FC00
C600
C600
7C00
0000
ENDCHAR
STARTCHAR 055
ENCODING 55
SWIDTH 648 0
DWIDTH 9 0
BBX 9 8 0 1
BITMAP
FE00
0600
0600
0C00
1800
3000
3000
0000
ENDCHAR
STARTCHAR 056
ENCODING 56
SWIDTH 648 0
DWIDTH 9 0
BBX 9 8 0 1
BITMAP
7C00
C600
C600
7C00
C600
C600
7C00
0000
ENDCHAR
STARTCHAR 057
ENCODING 57
SWIDTH 648 0
DWIDTH 9 0
BBX 9 8 0 1
BITMAP
7C00
C600
C600
7E00
0600
0600
7C00
0000
ENDCHAR
STARTCHAR 058
ENCODING 58
SWIDTH 648 0
DWIDTH 9 0
BBX 9 8 0 1
BITMAP
0000
C000
C000
0000
0000
C000
C000
0000
ENDCHAR
STARTCHAR 059
ENCODING 59
SWIDTH 648 0
DWIDTH 9 0
BBX 9 8 0 1
BITMAP
0000
6000
6000
0000
0000
6000
6000
C000
ENDCHAR
STARTCHAR 060
ENCODING 60
SWIDTH 648 0
DWIDTH 9 0
BBX 9 8 0 1
BITMAP
1800
3000
6000
C000
6000
3000
1800
0000
ENDCHAR
STARTCHAR 061
ENCODING 61
SWIDTH 648 0
DWIDTH 9 0
BBX 9 8 0 1
BITMAP
0000
0000
FC00
0000
FC00
0000
0000
0000
ENDCHAR
STARTCHAR 062
ENCODING 62
SWIDTH 648 0
DWIDTH 9 0
BBX 9 8 0 1
BITMAP
C000
6000
3000
1800
3000
6000
C000
0000
ENDCHAR
STARTCHAR 063
ENCODING 63
SWIDTH 648 0
DWIDTH 9 0
BBX 9 8 0 1
BITMAP
7800
CC00
1800
3000
3000
0000
3000
0000
ENDCHAR
STARTCHAR 064
ENCODING 64
SWIDTH 648 0
DWIDTH 9 0
BBX 9 8 0 1
BITMAP
7C00
C600
DE00
DE00
DE00
C000
7E00
0000
ENDCHAR
STARTCHAR 065
ENCODING 65
SWIDTH 648 0
DWIDTH 9 0
BBX 9 8 0 1
BITMAP
3800
6C00
C600
C600
FE00
C600
C600
0000
ENDCHAR
STARTCHAR 066
ENCODING 66
SWIDTH 648 0
DWIDTH 9 0
BBX 9 8 0 1
BITMAP
FC00
C600
C600
FC00
C600
C600
FC00
0000
ENDCHAR
STARTCHAR 067
ENCODING 67
SWIDTH 648 0
DWIDTH 9 0
BBX 9 8 0 1
BITMAP
7C00
C600
C000
C000
C000
C600
7C00
0000
ENDCHAR
STARTCHAR 068
ENCODING 68
SWIDTH 648 0
DWIDTH 9 0
BBX 9 8 0 1
BITMAP
F800
CC00
C600
C600
C600
CC00
F800
0000
ENDCHAR
STARTCHAR 069
ENCODING 69
SWIDTH 648 0
DWIDTH 9 0
BBX 9 8 0 1
BITMAP
FE00
C000
C000
F800
C000
C000
FE00
0000
ENDCHAR
STARTCHAR 070
ENCODING 70
SWIDTH 648 0
DWIDTH 9 0
BBX 9 8 0 1
BITMAP
FE00
C000
C000
F800
C000
C000
C000
0000
ENDCHAR
STARTCHAR 071
ENCODING 71
SWIDTH 648 0
DWIDTH 9 0
BBX 9 8 0 1
BITMAP
7C00
C600
C000
C000
CE00
C600
7C00
0000
ENDCHAR
STARTCHAR 072
ENCODING 72
SWIDTH 648 0
DWIDTH 9 0
BBX 9 8 0 1
BITMAP
C600
C600
C600
FE00
C600
C600
C600
0000
ENDCHAR
STARTCHAR 073
ENCODING 73
SWIDTH 648 0
DWIDTH 9 0
BBX 9 8 0 1
BITMAP
7E00
1800
1800
1800
1800
1800
7E00
0000
ENDCHAR
STARTCHAR 074
ENCODING 74
SWIDTH 648 0
DWIDTH 9 0
BBX 9 8 0 1
BITMAP
0600
0600
0600
0600
0600
C600
7C00
0000
ENDCHAR
STARTCHAR 075
ENCODING 75
SWIDTH 648 0
DWIDTH 9 0
BBX 9 8 0 1
BITMAP
C600
CC00
D800
F000
D800
CC00
C600
0000
ENDCHAR
STARTCHAR 076
ENCODING 76
SWIDTH 648 0
DWIDTH 9 0
BBX 9 8 0 1
BITMAP
C000
C000
C000
C000
C000
C000
FE00
0000
ENDCHAR
STARTCHAR 077
ENCODING 77
SWIDTH 648 0
DWIDTH 9 0
BBX 9 8 0 1
BITMAP
C600
EE00
FE00
FE00
D600
C600
C600
0000
ENDCHAR
STARTCHAR 078
ENCODING 78
SWIDTH 648 0
DWIDTH 9 0
BBX 9 8 0 1
BITMAP
C600
E600
F600
DE00
CE00
C600
C600
0000
ENDCHAR
STARTCHAR 079
ENCODING 79
SWIDTH 648 0
DWIDTH 9 0
BBX 9 8 0 1
BITMAP
7C00
C600
C600
C600
C600
C600
7C00
0000
ENDCHAR
STARTCHAR 080
ENCODING 80
SWIDTH 648 0
DWIDTH 9 0
BBX 9 8 0 1
BITMAP
FC00
C600
C600
FC00
C000
C000
C000
0000
ENDCHAR
STARTCHAR 081
ENCODING 81
SWIDTH 648 0
DWIDTH 9 0
BBX 9 8 0 1
BITMAP
7C00
C600
C600
C600
D600
DE00
7C00
0600
ENDCHAR
STARTCHAR 082
ENCODING 82
SWIDTH 648 0
DWIDTH 9 0
BBX 9 8 0 1
BITMAP
FC00
C600
C600
FC00
D800
CC00
C600
0000
ENDCHAR
STARTCHAR 083
ENCODING 83
SWIDTH 648 0
DWIDTH 9 0
BBX 9 8 0 1
BITMAP
7C00
C600
C000
7C00
0600
C600
7C00
0000
ENDCHAR
STARTCHAR 084
ENCODING 84
SWIDTH 648 0
DWIDTH 9 0
BBX 9 8 0 1
BITMAP
FF00
1800
1800
1800
1800
1800
1800
0000
ENDCHAR
STARTCHAR 085
ENCODING 85
SWIDTH 648 0
DWIDTH 9 0
BBX 9 8 0 1
BITMAP
C600
C600
C600
C600
C600
C600
FE00
0000
ENDCHAR
STARTCHAR 086
ENCODING 86
SWIDTH 648 0
DWIDTH 9 0
BBX 9 8 0 1
BITMAP
C600
C600
C600
C600
C600
7C00
3800
0000
ENDCHAR
STARTCHAR 087
ENCODING 87
SWIDTH 648 0
DWIDTH 9 0
BBX 9 8 0 1
BITMAP
C600
C600
C600
C600
D600
FE00
6C00
0000
ENDCHAR
STARTCHAR 088
ENCODING 88
SWIDTH 648 0
DWIDTH 9 0
BBX 9 8 0 1
BITMAP
C600
C600
6C00
3800
6C00
C600
C600
0000
ENDCHAR
STARTCHAR 089
ENCODING 89
SWIDTH 648 0
DWIDTH 9 0
BBX 9 8 0 1
BITMAP
C600
C600
C600
7C00
1800
3000
E000
0000
ENDCHAR
STARTCHAR 090
ENCODING 90
SWIDTH 648 0
DWIDTH 9 0
BBX 9 8 0 1
BITMAP
FE00
0600
0C00
1800
3000
6000
FE00
0000
ENDCHAR
STARTCHAR 091
ENCODING 91
SWIDTH 648 0
DWIDTH 9 0
BBX 9 8 0 1
BITMAP
F000
C000
C000
C000
C000
C000
F000
0000
ENDCHAR
STARTCHAR 092
ENCODING 92
SWIDTH 648 0
DWIDTH 9 0
BBX 9 8 0 1
BITMAP
C000
6000
3000
1800
0C00
0600
0200
0000
ENDCHAR
STARTCHAR 093
ENCODING 93
SWIDTH 648 0
DWIDTH 9 0
BBX 9 8 0 1
BITMAP
F000
3000
3000
3000
3000
3000
F000
0000
ENDCHAR
STARTCHAR 094
ENCODING 94
SWIDTH 648 0
DWIDTH 9 0
BBX 9 8 0 1
BITMAP
1000
3800
6C00
C600
0000
0000
0000
0000
ENDCHAR
STARTCHAR 095
ENCODING 95
SWIDTH 648 0
DWIDTH 9 0
BBX 9 8 0 1
BITMAP
0000
0000
0000
0000
0000
0000
0000
FF00
ENDCHAR
STARTCHAR 096
ENCODING 96
SWIDTH 648 0
DWIDTH 9 0
BBX 9 8 0 1
BITMAP
C000
C000
6000
0000
0000
0000
0000
0000
ENDCHAR
STARTCHAR 097
ENCODING 97
SWIDTH 648 0
DWIDTH 9 0
BBX 9 8 0 1
BITMAP
0000
0000
7C00
0600
7E00
C600
7E00
0000
ENDCHAR
STARTCHAR 098
ENCODING 98
SWIDTH 648 0
DWIDTH 9 0
BBX 9 8 0 1
BITMAP
C000
C000
C000
FC00
C600
C600
FC00
0000
ENDCHAR
STARTCHAR 099
ENCODING 99
SWIDTH 648 0
DWIDTH 9 0
BBX 9 8 0 1
BITMAP
0000
0000
7C00
C600
C000
C600
7C00
0000
ENDCHAR
STARTCHAR 100
ENCODING 100
SWIDTH 648 0
DWIDTH 9 0
BBX 9 8 0 1
BITMAP
0600
0600
0600
7E00
C600
C600
7E00
0000
ENDCHAR
STARTCHAR 101
ENCODING 101
SWIDTH 648 0
DWIDTH 9 0
BBX 9 8 0 1
BITMAP
0000
0000
7C00
C600
FE00
C000
7C00
0000
ENDCHAR
STARTCHAR 102
ENCODING 102
SWIDTH 648 0
DWIDTH 9 0
BBX 9 8 0 1
BITMAP
1C00
3600
3000
7800
3000
3000
7800
0000
ENDCHAR
STARTCHAR 103
ENCODING 103
SWIDTH 648 0
DWIDTH 9 0
BBX 9 8 0 1
BITMAP
0000
0000
7E00
C600
C600
7E00
0600
FC00
ENDCHAR
STARTCHAR 104
ENCODING 104
SWIDTH 648 0
DWIDTH 9 0
BBX 9 8 0 1
BITMAP
C000
C000
FC00
C600
C600
C600
C600
0000
ENDCHAR
STARTCHAR 105
ENCODING 105
SWIDTH 648 0
DWIDTH 9 0
BBX 9 8 0 1
BITMAP
6000
0000
E000
6000
6000
6000
F000
0000
ENDCHAR
STARTCHAR 106
ENCODING 106
SWIDTH 648 0
DWIDTH 9 0
BBX 9 8 0 1
BITMAP
0600
0000
0600
0600
0600
0600
C600
7C00
ENDCHAR
STARTCHAR 107
ENCODING 107
SWIDTH 648 0
DWIDTH 9 0
BBX 9 8 0 1
BITMAP
C000
C000
CC00
D800
F800
CC00
C600
0000
ENDCHAR
STARTCHAR 108
ENCODING 108
SWIDTH 648 0
DWIDTH 9 0
BBX 9 8 0 1
BITMAP
E000
6000
6000
6000
6000
6000
F000
0000
ENDCHAR
STARTCHAR 109
ENCODING 109
SWIDTH 648 0
DWIDTH 9 0
BBX 9 8 0 1
BITMAP
0000
0000
CC00
FE00
FE00
D600
D600
0000
ENDCHAR
STARTCHAR 110
ENCODING 110
SWIDTH 648 0
DWIDTH 9 0
BBX 9 8 0 1
BITMAP
0000
0000
FC00
C600
C600
C600
C600
0000
ENDCHAR
STARTCHAR 111
ENCODING 111
SWIDTH 648 0
DWIDTH 9 0
BBX 9 8 0 1
BITMAP
0000
0000
7C00
C600
C600
C600
7C00
0000
ENDCHAR
STARTCHAR 112
ENCODING 112
SWIDTH 648 0
DWIDTH 9 0
BBX 9 8 0 1
BITMAP
0000
0000
FC00
C600
C600
FC00
C000
C000
ENDCHAR
STARTCHAR 113
ENCODING 113
SWIDTH 648 0
DWIDTH 9 0
BBX 9 8 0 1
BITMAP
0000
0000
7E00
C600
C600
7E00
0600
0600
ENDCHAR
STARTCHAR 114
ENCODING 114
SWIDTH 648 0
DWIDTH 9 0
BBX 9 8 0 1
BITMAP
0000
0000
FC00
C600
C000
C000
C000
0000
ENDCHAR
STARTCHAR 115
ENCODING 115
SWIDTH 648 0
DWIDTH 9 0
BBX 9 8 0 1
BITMAP
0000
0000
7E00
C000
7C00
0600
FC00
0000
ENDCHAR
STARTCHAR 116
ENCODING 116
SWIDTH 648 0
DWIDTH 9 0
BBX 9 8 0 1
BITMAP
3000
3000
FC00
3000
3000
3000
1C00
0000
ENDCHAR
STARTCHAR 117
ENCODING 117
SWIDTH 648 0
DWIDTH 9 0
BBX 9 8 0 1
BITMAP
0000
0000
C600
C600
C600
C600
7E00
0000
ENDCHAR
STARTCHAR 118
ENCODING 118
SWIDTH 648 0
DWIDTH 9 0
BBX 9 8 0 1
BITMAP
0000
0000
C600
C600
C600
7C00
3800
0000
ENDCHAR
STARTCHAR 119
ENCODING 119
SWIDTH 648 0
DWIDTH 9 0
BBX 9 8 0 1
BITMAP
0000
0000
C600
C600
D600
FE00
6C00
0000
ENDCHAR
STARTCHAR 120
ENCODING 120
SWIDTH 648 0
DWIDTH 9 0
BBX 9 8 0 1
BITMAP
0000
0000
C600
6C00
3800
6C00
C600
0000
ENDCHAR
STARTCHAR 121
ENCODING 121
SWIDTH 648 0
DWIDTH 9 0
BBX 9 8 0 1
BITMAP
0000
0000
C600
C600
C600
7E00
0600
FC00
ENDCHAR
STARTCHAR 122
ENCODING 122
SWIDTH 648 0
DWIDTH 9 0
BBX 9 8 0 1
BITMAP
0000
0000
FE00
0C00
3800
6000
FE00
0000
ENDCHAR
STARTCHAR 123
ENCODING 123
SWIDTH 648 0
DWIDTH 9 0
BBX 9 8 0 1
BITMAP
1C00
3000
3000
E000
3000
3000
1C00
0000
ENDCHAR
STARTCHAR 124
ENCODING 124
SWIDTH 648 0
DWIDTH 9 0
BBX 9 8 0 1
BITMAP
C000
C000
C000
0000
C000
C000
C000
0000
ENDCHAR
STARTCHAR 125
ENCODING 125
SWIDTH 648 0
DWIDTH 9 0
BBX 9 8 0 1
BITMAP
E000
3000
3000
1C00
3000
3000
E000
0000
ENDCHAR
STARTCHAR 126
ENCODING 126
SWIDTH 648 0
DWIDTH 9 0
BBX 9 8 0 1
BITMAP
7600
DC00
0000
0000
0000
0000
0000
0000
ENDCHAR
STARTCHAR 127
ENCODING 127
SWIDTH 648 0
DWIDTH 9 0
BBX 9 8 0 1
BITMAP
0000
1000
3800
6C00
C600
C600
FE00
0000
ENDCHAR
ENDFONT
